HIERARCHY
ROOT Hips
{
	OFFSET 0.000000 0.000000 0.000000
	CHANNELS 6 Xposition Yposition Zposition Xrotation Yrotation Zrotation
	JOINT LeftUpLeg_virtual
	{
		OFFSET 0.000000 0.000000 0.000000
		CHANNELS 3 Xrotation Yrotation Zrotation
		JOINT LeftUpLeg
		{
			OFFSET 11.394100 -6.187798 -0.413800
			CHANNELS 3 Xrotation Yrotation Zrotation
			JOINT LeftLeg
			{
				OFFSET 0.430247 -32.302673 3.732800
				CHANNELS 3 Xrotation Yrotation Zrotation
				JOINT LeftFoot
				{
					OFFSET -0.430247 -48.264931 -6.423300
					CHANNELS 3 Xrotation Yrotation Zrotation
					JOINT LeftToeBase
					{
						OFFSET 4.230900 -16.068199 23.438400
						CHANNELS 3 Xrotation Yrotation Zrotation
						JOINT LeftToe_End
						{
							OFFSET 4.510700 0.695400 19.974600
							CHANNELS 3 Xrotation Yrotation Zrotation
							End Site
							{
								OFFSET 0 0 0
							}
						}
					}
				}
			}
		}
	}
	JOINT RightUpLeg_virtual
	{
		OFFSET 0.000000 0.000000 0.000000
		CHANNELS 3 Xrotation Yrotation Zrotation
		JOINT RightUpLeg
		{
			OFFSET -11.333700 -6.187798 -0.413800
			CHANNELS 3 Xrotation Yrotation Zrotation
			JOINT RightLeg
			{
				OFFSET -0.430392 -32.302628 3.733000
				CHANNELS 3 Xrotation Yrotation Zrotation
				JOINT RightFoot
				{
					OFFSET 0.430392 -48.264973 -6.423500
					CHANNELS 3 Xrotation Yrotation Zrotation
					JOINT RightToeBase
					{
						OFFSET -4.230900 -16.068199 23.438400
						CHANNELS 3 Xrotation Yrotation Zrotation
						JOINT RightToe_End
						{
							OFFSET -4.510700 0.695400 19.974600
							CHANNELS 3 Xrotation Yrotation Zrotation
							End Site
							{
								OFFSET 0 0 0
							}
						}
					}
				}
			}
		}
	}
	JOINT Spine_virtual
	{
		OFFSET 0.000000 0.000000 0.000000
		CHANNELS 3 Xrotation Yrotation Zrotation
		JOINT Spine
		{
			OFFSET -0.002400 12.777504 0.315300
			CHANNELS 3 Xrotation Yrotation Zrotation
			JOINT Spine1
			{
				OFFSET -0.002067 5.816869 0.032633
				CHANNELS 3 Xrotation Yrotation Zrotation
				JOINT Spine1_split
				{
					OFFSET -0.002067 5.816869 0.032633
					CHANNELS 3 Xrotation Yrotation Zrotation
					JOINT Spine2
					{
						OFFSET -0.002067 5.816869 0.032633
						CHANNELS 3 Xrotation Yrotation Zrotation
						JOINT Neck_virtual
						{
							OFFSET 0.000000 0.000000 0.000000
							CHANNELS 3 Xrotation Yrotation Zrotation
							JOINT Neck
							{
								OFFSET -0.003700 21.199493 -0.826900
								CHANNELS 3 Xrotation Yrotation Zrotation
								JOINT Head
								{
									OFFSET 0.000000 20.442200 4.834800
									CHANNELS 3 Xrotation Yrotation Zrotation
									JOINT HeadTop_End
									{
										OFFSET 0.000000 34.668396 4.968400
										CHANNELS 3 Xrotation Yrotation Zrotation
										End Site
										{
											OFFSET 0 0 0
										}
									}
								}
							}
						}
						JOINT LeftShoulder_virtual
						{
							OFFSET 0.000000 0.000000 0.000000
							CHANNELS 3 Xrotation Yrotation Zrotation
							JOINT LeftShoulder
							{
								OFFSET 3.288150 8.794197 -1.372250
								CHANNELS 3 Xrotation Yrotation Zrotation
								JOINT LeftShoulder_split
								{
									OFFSET 3.288150 8.794197 -1.372250
									CHANNELS 3 Xrotation Yrotation Zrotation
									JOINT LeftArm
									{
										OFFSET 11.953299 -2.279007 -0.146200
										CHANNELS 3 Xrotation Yrotation Zrotation
										JOINT LeftForeArm
										{
											OFFSET 18.448900 0.000000 0.000000
											CHANNELS 3 Xrotation Yrotation Zrotation
											JOINT LeftHand
											{
												OFFSET 29.527798 0.000000 0.000000
												CHANNELS 3 Xrotation Yrotation Zrotation
												End Site
												{
													OFFSET 0 0 0
												}
											}
										}
									}
								}
							}
						}
						JOINT RightShoulder_virtual
						{
							OFFSET 0.000000 0.000000 0.000000
							CHANNELS 3 Xrotation Yrotation Zrotation
							JOINT RightShoulder
							{
								OFFSET -3.249400 8.794197 -1.372250
								CHANNELS 3 Xrotation Yrotation Zrotation
								JOINT RightShoulder_split
								{
									OFFSET -3.249400 8.794197 -1.372250
									CHANNELS 3 Xrotation Yrotation Zrotation
									JOINT RightArm
									{
										OFFSET -11.953299 -2.279007 -0.146200
										CHANNELS 3 Xrotation Yrotation Zrotation
										JOINT RightForeArm
										{
											OFFSET -18.448900 0.000000 0.000000
											CHANNELS 3 Xrotation Yrotation Zrotation
											JOINT RightHand
											{
												OFFSET -29.527802 0.000000 0.000000
												CHANNELS 3 Xrotation Yrotation Zrotation
												End Site
												{
													OFFSET 0 0 0
												}
											}
										}
									}
								}
							}
						}
					}
				}
			}
		}
	}
}
MOTION
Frames: 9
Frame Time: 0.03333333
17.963411 92.749733 -24.170681 0.000000 0.000000 0.000000 155.409070 -41.120788 163.067474 -27.511075 27.222634 23.233047 30.289765 21.461387 -1.154957 -6.850484 10.361694 -28.295119 0.034693 -0.488440 1.470335 0.000000 0.000000 0.000000 156.322239 -38.096784 163.404722 -54.187562 13.683955 10.807377 25.306281 -1.808103 -1.094642 3.395677 -2.698184 3.659237 4.057553 0.103494 -1.483002 0.000000 0.000000 0.000000 157.103285 -40.397164 162.600685 35.757932 1.922560 9.787951 -9.165779 -2.401339 2.266765 0.629930 1.423277 0.578450 0.000000 0.000000 0.000000 -9.218092 -2.061065 2.228953 -10.385769 0.039186 -9.019684 -20.012646 -12.132644 7.295438 0.000000 0.000000 0.000000 -10.128893 -1.884196 2.017329 6.932361 -15.389144 25.534850 4.179844 1.771670 1.967421 -69.450265 -1.658919 -45.597390 -1.513241 -60.725730 4.966293 0.000000 0.000000 0.000000 -9.682421 -1.654814 2.360536 6.344119 5.324497 -2.487300 -3.610890 -0.313549 2.143863 -0.213371 5.964052 68.002921 14.353444 25.729898 -3.755959 0.000000 0.000000 0.000000 
17.766455 93.034218 -24.361492 0.000000 0.000000 0.000000 155.652949 -41.340208 163.361951 -26.039271 27.374218 22.404730 28.947168 21.592834 -0.956861 -6.640960 10.249723 -28.118945 0.160956 -0.465603 1.334890 0.000000 0.000000 0.000000 156.524795 -38.326756 163.639038 -53.432556 13.550031 10.499549 24.936725 -1.778975 -1.157965 3.201677 -2.476430 3.521320 4.048622 0.160935 -1.399215 0.000000 0.000000 0.000000 157.295841 -40.626228 162.909383 35.513763 1.926511 9.769773 -9.117816 -2.417796 2.384721 0.559721 1.492634 0.574264 0.000000 0.000000 0.000000 -9.093849 -2.082752 2.314903 -11.217085 -3.230484 -7.827240 -17.860349 -15.878733 8.105963 0.000000 0.000000 0.000000 -10.022459 -1.924325 2.126584 6.599320 -14.770511 24.727896 4.205232 1.820285 2.271451 -69.296360 -1.126610 -45.849059 -1.372722 -60.202790 5.051196 0.000000 0.000000 0.000000 -9.517558 -1.680436 2.432141 6.213458 4.717021 -2.724728 -3.773842 -0.187778 2.101094 -0.129739 6.403883 68.349307 14.090270 25.844842 -3.516369 0.000000 0.000000 0.000000 
17.579725 93.317596 -24.529346 0.000000 0.000000 0.000000 155.861106 -41.547546 163.622181 -24.630031 27.499148 21.556886 27.644100 21.707765 -0.742836 -6.459765 10.127912 -27.958891 0.256278 -0.443465 1.231593 0.000000 0.000000 0.000000 156.690495 -38.520491 163.842305 -52.732581 13.392877 10.158300 24.587737 -1.720983 -1.216982 3.079289 -2.266803 3.441153 4.011111 0.214209 -1.311121 0.000000 0.000000 0.000000 157.436666 -40.818406 163.203067 35.295201 1.965711 9.743162 -9.091246 -2.408344 2.455017 0.573220 1.508201 0.548777 0.000000 0.000000 0.000000 -8.971609 -2.084655 2.363439 -11.927697 -6.106003 -7.003005 -16.030770 -18.741940 8.582770 0.000000 0.000000 0.000000 -9.943429 -1.940864 2.197990 6.311490 -14.303451 23.865685 4.267056 1.973644 2.611256 -69.187952 -0.664123 -46.077511 -1.482200 -59.636062 4.864722 0.000000 0.000000 0.000000 -9.373520 -1.692463 2.455735 6.085226 4.123555 -2.900831 -3.894983 -0.123794 2.114142 -0.125571 6.849658 68.711232 13.851476 26.056815 -3.292784 0.000000 0.000000 0.000000 
17.404474 93.591591 -24.647457 0.000000 0.000000 0.000000 156.032639 -41.744497 163.861156 -23.312730 27.584960 20.716544 26.420504 21.808813 -0.534351 -6.276907 10.006971 -27.808026 0.324058 -0.421558 1.150777 0.000000 0.000000 0.000000 156.819108 -38.702256 164.030449 -52.103770 13.171873 9.763343 24.309640 -1.635479 -1.263141 2.990748 -2.085846 3.403585 3.991904 0.259320 -1.210706 0.000000 0.000000 0.000000 157.536018 -40.993870 163.487230 35.082174 2.031152 9.719178 -9.074987 -2.379024 2.474232 0.632497 1.497263 0.541508 0.000000 0.000000 0.000000 -8.858002 -2.072988 2.372785 -12.530520 -8.480583 -6.563163 -14.550622 -20.613608 8.694350 0.000000 0.000000 0.000000 -9.889694 -1.937579 2.233188 6.064072 -13.931848 23.029555 4.291221 2.147680 2.914458 -69.121542 -0.403620 -46.259662 -1.809330 -59.199408 4.444200 0.000000 0.000000 0.000000 -9.253035 -1.696120 2.431679 5.959912 3.576120 -3.029374 -3.928268 -0.053876 2.163846 -0.192250 7.282953 69.095573 13.668361 26.373819 -3.105082 0.000000 0.000000 0.000000 
17.244471 93.844620 -24.708416 0.000000 0.000000 0.000000 156.175445 -41.947019 164.100158 -22.102292 27.631201 19.897962 25.308460 21.908853 -0.354993 -6.075033 9.901430 -27.644369 0.383069 -0.400207 1.075092 0.000000 0.000000 0.000000 156.918187 -38.901172 164.217569 -51.543162 12.864636 9.302502 24.141649 -1.532075 -1.293642 2.890819 -1.952267 3.378229 4.024848 0.295884 -1.089572 0.000000 0.000000 0.000000 157.619770 -41.168221 163.773484 34.854920 2.103182 9.714174 -9.059127 -2.338911 2.454608 0.711586 1.492611 0.536519 0.000000 0.000000 0.000000 -8.765737 -2.051977 2.351317 -13.033321 -10.308320 -6.467533 -13.398554 -21.610317 8.517629 0.000000 0.000000 0.000000 -9.851573 -1.919089 2.244855 5.859133 -13.616243 22.297224 4.226113 2.286638 3.112362 -69.052939 -0.388096 -46.360951 -2.329888 -58.944027 3.829490 0.000000 0.000000 0.000000 -9.158759 -1.697263 2.376508 5.840698 3.077729 -3.121783 -3.898879 0.033761 2.213436 -0.289534 7.690148 69.509251 13.536284 26.734655 -2.951008 0.000000 0.000000 0.000000 
17.103283 94.070786 -24.708431 0.000000 0.000000 0.000000 156.305205 -42.176883 164.357205 -20.993604 27.640440 19.116217 24.310224 22.007296 -0.215665 -5.850790 9.823701 -27.454651 0.446949 -0.378661 0.989105 0.000000 0.000000 0.000000 157.001788 -39.151874 164.418404 -51.032114 12.469083 8.778081 24.089645 -1.417719 -1.310722 2.747922 -1.873907 3.345877 4.089431 0.323902 -0.948381 0.000000 0.000000 0.000000 157.713835 -41.370668 164.068370 34.616123 2.161098 9.733125 -9.042527 -2.300768 2.416426 0.703621 1.543737 0.535047 0.000000 0.000000 0.000000 -8.699591 -2.033954 2.317755 -13.451531 -11.651693 -6.623768 -12.492204 -21.897228 8.189310 0.000000 0.000000 0.000000 -9.825581 -1.892929 2.249663 5.691738 -13.305349 21.702783 4.102110 2.367465 3.139682 -68.915509 -0.573775 -46.363918 -3.017635 -58.779952 3.054721 0.000000 0.000000 0.000000 -9.082965 -1.702418 2.311675 5.732280 2.638559 -3.193732 -3.847318 0.108592 2.237846 -0.365840 8.044195 69.921705 13.429078 27.038812 -2.815157 0.000000 0.000000 0.000000 
16.998686 94.268997 -24.663990 0.000000 0.000000 0.000000 156.443065 -42.448861 164.653239 -19.980907 27.601039 18.379691 23.411662 22.077381 -0.111490 -5.609911 9.767063 -27.248208 0.487482 -0.356033 0.900773 0.000000 0.000000 0.000000 157.093381 -39.483712 164.665110 -50.554724 12.014252 8.196755 24.135088 -1.290451 -1.321705 2.552123 -1.843864 3.313305 4.132851 0.346516 -0.794023 0.000000 0.000000 0.000000 157.833446 -41.626059 164.382368 34.382841 2.182768 9.766277 -9.020346 -2.272064 2.376071 0.642120 1.597156 0.545443 0.000000 0.000000 0.000000 -8.673187 -2.019439 2.285567 -13.808854 -12.596978 -6.917647 -11.753890 -21.737316 7.866578 0.000000 0.000000 0.000000 -9.806778 -1.868762 2.250408 5.561827 -12.976646 21.273630 3.943843 2.391265 3.032925 -68.683324 -0.912543 -46.280406 -3.803075 -58.519497 2.198815 0.000000 0.000000 0.000000 -9.014560 -1.711642 2.253651 5.643285 2.272030 -3.247744 -3.840748 0.101542 2.172270 -0.374302 8.337484 70.302229 13.321014 27.226804 -2.682177 0.000000 0.000000 0.000000 
16.930470 94.442398 -24.606441 0.000000 0.000000 0.000000 156.610746 -42.792098 164.993383 -19.061369 27.500246 17.704576 22.604482 22.086349 -0.033587 -5.357224 9.716591 -27.040890 0.506661 -0.333767 0.815831 0.000000 0.000000 0.000000 157.206038 -39.923975 164.949615 -50.104728 11.528132 7.579825 24.248551 -1.157735 -1.335453 2.305845 -1.853545 3.282907 4.124648 0.364723 -0.636390 0.000000 0.000000 0.000000 157.991127 -41.961557 164.721965 34.174735 2.158765 9.795212 -8.992912 -2.252632 2.342069 0.553495 1.655663 0.514967 0.000000 0.000000 0.000000 -8.677624 -2.008834 2.265274 -14.123102 -13.278136 -7.266602 -11.133634 -21.383454 7.648970 0.000000 0.000000 0.000000 -9.790728 -1.842452 2.253206 5.467179 -12.644781 20.975337 3.807899 2.365776 2.877165 -68.369210 -1.313284 -46.173639 -4.583623 -58.084120 1.359688 0.000000 0.000000 0.000000 -8.945847 -1.719036 2.214187 5.582030 1.986742 -3.279034 -3.903086 0.023489 2.051501 -0.249149 8.577636 70.637892 13.208423 27.309019 -2.556889 0.000000 0.000000 0.000000 
16.906143 94.588028 -24.548122 0.000000 0.000000 0.000000 156.817332 -43.235289 165.373387 -18.240471 27.317497 17.106076 21.910890 21.998824 0.029975 -5.122388 9.657098 -26.845147 0.510395 -0.311853 0.745269 0.000000 0.000000 0.000000 157.346235 -40.501949 165.267301 -49.685972 11.039776 6.948972 24.430986 -1.027524 -1.356696 2.006956 -1.890916 3.256863 4.056093 0.381288 -0.491312 0.000000 0.000000 0.000000 158.190910 -42.409300 165.087913 34.010090 2.094411 9.800245 -8.959221 -2.233189 2.314441 0.501804 1.735649 0.483131 0.000000 0.000000 0.000000 -8.701961 -1.993665 2.252953 -14.403986 -13.820493 -7.614470 -10.568812 -21.039138 7.572095 0.000000 0.000000 0.000000 -9.779073 -1.810951 2.247846 5.383628 -12.298504 20.727657 3.716982 2.246730 2.742329 -68.038363 -1.743851 -46.119753 -5.234731 -57.613083 0.631092 0.000000 0.000000 0.000000 -8.873424 -1.709205 2.189002 5.548446 1.784955 -3.293708 -3.979631 -0.068008 1.868686 0.031162 8.808396 70.912820 13.101691 27.310090 -2.461543 0.000000 0.000000 0.000000 
